<svg viewBox="0 0 92 161" xmlns="http://www.w3.org/2000/svg">
 <g><g id="Layer_1"><g id="svg_2"><g id="svg_3"><path class="st18" fill="#0F627F" d="m52.49532,155.00488c-0.70592,3.13776 -3.51427,5.47537 -6.87151,5.47537c-3.34191,0 -6.16577,-2.33765 -6.87189,-5.47537c0.39222,0.047 0.80014,0.06268 1.22377,0.06268l11.29585,0c0.42363,0 0.83154,-0.01572 1.22377,-0.06268l0.00002,0z" id="svg_4"/></g><g id="svg_5">
     <path class="st19" fill="#005670" d="m64.21479,117.30466l-1.25497,23.69015c0,7.32663 -3.73395,13.36676 -10.46448,14.01007c-0.39224,0.047 -0.80014,0.06268 -1.22377,0.06268l-11.29585,0c-0.42361,0 -0.83155,-0.01569 -1.22377,-0.06268c-6.73055,-0.64328 -10.46429,-6.68344 -10.46429,-14.01007l-1.25518,-23.69015l37.18233,0l-0.00002,0z" id="svg_6"/></g><g id="svg_7"><path class="st18" fill="#0F627F" d="m27.80003,128.05391c-1.69205,0 -3.14381,-1.27682 -3.3269,-2.99503c-0.19455,-1.83917 1.13784,-3.48711 2.97704,-3.68329l35.64268,-3.77646c1.84737,-0.17004 3.48714,1.13948 3.68332,2.97704c0.19452,1.83919 -1.13786,3.48711 -2.97707,3.68327l-35.64268,3.77648c-0.12098,0.01146 -0.23869,0.01799 -0.3564,0.01799l0.00002,0z" id="svg_8"/></g><g id="svg_9"><path class="st18" fill="#0F627F" d="m28.66322,139.72531c-1.69204,0 -3.1438,-1.27679 -3.32688,-2.995c-0.19456,-1.83917 1.13948,-3.48712 2.97704,-3.68329l33.91631,-3.59174c1.83592,-0.16348 3.48711,1.13785 3.68329,2.97702c0.19453,1.8392 -1.13948,3.48712 -2.97705,3.68329l-33.91632,3.59174c-0.12096,0.01144 -0.23867,0.01797 -0.35638,0.01797l-0.00001,0z" id="svg_10"/></g>
    <g id="svg_11"><path class="st18" fill="#0F627F" d="m30.54818,151.29053c-1.69207,0 -3.14378,-1.27682 -3.32689,-2.99503c-0.19453,-1.83917 1.13948,-3.48709 2.97704,-3.68329l30.14803,-3.19284c1.83429,-0.1684 3.48709,1.13785 3.68327,2.97705c0.19455,1.83917 -1.13948,3.48712 -2.97702,3.68329l-30.14803,3.19284c-0.12097,0.01144 -0.23867,0.01797 -0.35639,0.01797l-0.00002,0z" id="svg_12"/></g><g id="svg_13"><path class="st26" fill="#ffffff" d="m90.61915,46.24611c0,9.94678 -3.23198,19.14037 -8.70734,26.59253c-6.11848,8.33057 -9.75836,18.21461 -9.75836,28.55347l0,9.44458c0,4.12621 -3.34174,7.46802 -7.4679,7.46802l-38.12386,0c-4.12598,0 -7.4679,-3.34181 -7.4679,-7.46802l0,-10.49562c0,-9.82129 -3.51427,-19.20313 -9.42896,-27.04762c-6.6833,-8.86401 -10.16632,-20.28564 -8.7229,-32.52271c2.43188,-20.52098 19.01482,-36.97851 39.55157,-39.25342c27.15723,-2.99658 50.12563,18.18335 50.12563,44.72876l0.00002,0.00002z" id="svg_14"/></g><g id="svg_15"><path class="st27" fill="#FFCF3A" d="m36.12363,114.58428l0.64129,-12.10553c0,-3.74388 1.90802,-6.83035 5.3473,-7.15907c0.20042,-0.02402 0.40888,-0.03206 0.62534,-0.03206l5.77213,0c0.21648,0 0.42491,0.00804 0.62534,0.03206c3.4393,0.3287 5.34721,3.41519 5.34721,7.15907l0.64139,12.10553l-18.99998,0l-0.00001,0z" id="svg_16"/></g><g id="svg_17"><g id="svg_18"><path class="st27" fill="#FFCF3A" d="m40.50732,98.88062c-0.91309,0 -1.73779,-0.62891 -1.94824,-1.55664l-9.78613,-43.09082c-0.24463,-1.07715 0.43017,-2.14844 1.50732,-2.39307c1.07471,-0.24658 2.14893,0.42969 2.39307,1.50732l9.78613,43.08985c0.24463,1.07715 -0.43018,2.14941 -1.50732,2.39355c-0.14893,0.03418 -0.29785,0.0498 -0.44482,0.0498l-0.00001,0z" id="svg_19"/></g><g id="svg_20"><path class="st27" fill="#FFCF3A" d="m50.72509,98.88062c-0.14697,0 -0.2959,-0.01563 -0.44482,-0.0498c-1.07715,-0.24413 -1.75194,-1.31641 -1.50731,-2.39354l9.78613,-43.08985c0.24463,-1.07763 1.31885,-1.7539 2.39307,-1.50732c1.07715,0.24463 1.75195,1.31593 1.50732,2.39307l-9.78613,43.09082c-0.21045,0.92773 -1.03517,1.55664 -1.94824,1.55664l-0.00002,-0.00002z" id="svg_21"/>
     </g></g> <g id="svg_22"><path class="st27" fill="#FFCF3A" d="m38.16893,59.0608l-8.39209,-4.5088c-0.97314,-0.52245 -1.33836,-1.73534 -0.81543,-2.708c0.52198,-0.97363 1.73487,-1.33936 2.70802,-0.81543l6.49952,3.49121l7.44287,-4l7.44872,4.00048l6.50244,-3.49218c0.97314,-0.52344 2.18457,-0.15771 2.7085,0.81591c0.52246,0.97315 0.15724,2.18555 -0.81592,2.7085l-8.39502,4.5078l-7.44775,-3.9995l-7.44386,4l0,0.00002z" id="svg_23"/></g></g></g></g></svg>