<svg width="26" height="18.3" xmlns="http://www.w3.org/2000/svg">
 <style type="text/css">.st0{fill:#FFFFFF;}
	.st1{fill:#47424C;}</style>

 <g>
  <title>background</title>
  <rect fill="none" id="canvas_background" height="402" width="582" y="-1" x="-1"/>
 </g>
 <g>
  <title>Layer 1</title>
  <g id="svg_1">
   <g id="svg_2">
    <path fill="#ffffff" id="svg_3" d="m24.33968,17.3c-2.8,-0.2 -10.1,-1.6 -15.6,-7c-4.4,-4.2 -6.4,-7.6 -7.2,-9.3l13.2,0c0.1,1.1 0.6,3 2.4,6.5c2.6,5.1 5.3,7.8 6.8,9.4c0.2,0.1 0.3,0.3 0.4,0.4z" class="st0"/>
    <path fill="#ffffff" id="svg_4" d="m13.83968,2c0.3,1.3 0.9,3.1 2.4,5.9c1.9,3.8 3.9,6.3 5.4,8c-3.3,-0.7 -8.2,-2.5 -12.3,-6.3c-3.2,-3.2 -5.1,-5.8 -6.1,-7.6l10.6,0m2.2,-2l-16,0c0,0 1.2,4.5 8,11c5.9,5.7 13.8,7.3 16.8,7.3c0.7,0 1.2,-0.1 1.2,-0.3c0.1,-1.1 -4,-3.2 -8,-11c-3.4,-6.6 -2,-7 -2,-7l0,0z" class="st1"/>
   </g>
  </g>
  <rect stroke="#ffffff" transform="rotate(-26.270414352416992 3.895416736602783,0.28768122196197493) " id="svg_8" height="1.7091" width="1.15079" y="-0.56687" x="3.32002" stroke-width="1.5" fill="#ffffff"/>
  <rect stroke="#ffffff" id="svg_9" height="3.92857" width="8.63961" y="-1.92263" x="4.4152" stroke-width="1.5" fill="#ffffff"/>
  <rect stroke="#ffffff" transform="rotate(25.764057159423828 12.472881317138672,-2.056858062744143) " id="svg_11" height="2.81746" width="3.44055" y="-3.46559" x="10.75261" fill-opacity="null" stroke-width="1.5" fill="#ffffff"/>
  <rect stroke="#ffffff" transform="rotate(16.213525772094727 12.146826744079588,-0.33412721753120467) " id="svg_12" height="2.20833" width="2.42927" y="-1.43829" x="10.93219" fill-opacity="null" stroke-opacity="null" stroke-width="1.5" fill="#ffffff"/>
 </g>
</svg>