<svg viewBox="0 0 26 18.3" xmlns="http://www.w3.org/2000/svg">
    <path fill="#ffffff" id="svg_3" d="m24.33968,17.3c-2.8,-0.2 -10.1,-1.6 -15.6,-7c-4.4,-4.2 -6.4,-7.6 -7.2,-9.3l13.2,0c0.1,1.1 0.6,3 2.4,6.5c2.6,5.1 5.3,7.8 6.8,9.4c0.2,0.1 0.3,0.3 0.4,0.4z" class="st0"/>
    <path fill="#ffffff" id="svg_4" d="m13.83968,2c0.3,1.3 0.9,3.1 2.4,5.9c1.9,3.8 3.9,6.3 5.4,8c-3.3,-0.7 -8.2,-2.5 -12.3,-6.3c-3.2,-3.2 -5.1,-5.8 -6.1,-7.6l10.6,0m2.2,-2l-16,0c0,0 1.2,4.5 8,11c5.9,5.7 13.8,7.3 16.8,7.3c0.7,0 1.2,-0.1 1.2,-0.3c0.1,-1.1 -4,-3.2 -8,-11c-3.4,-6.6 -2,-7 -2,-7l0,0z" class="st1"/>
</svg>