<svg viewBox="0 0 154 154" xmlns="http://www.w3.org/2000/svg">
	<g>
		<g id="svg_1"><path id="svg_3" d="m141.46669,3.33333c5,0 9,4 9,9l0,129.1c0,5 -4,9 -9,9l-129.10003,0c-5,0 -9,-4 -9,-9l0,-129.1c0,-5 4,-9 9,-9l129.10003,0m0,-3l-129.10003,0c-6.6,0 -12,5.4 -12,12l0,129.1c0,6.60001 5.4,12 12,12l129.10003,0c6.59999,0 12,-5.39999 12,-12l0,-129.1c0,-6.6 -5.40001,-12 -12,-12l0,0z" fill="#98E3F3"/></g>
		<path id="svg_4" d="m37.96667,70.33334l0,-33.7l-2.60001,0l0,14.3l-7.8,0l0,-14.3l-2.6,0l0,33.7l2.6,0l0,-16.8l7.8,0l0,16.8l2.60001,0z" fill="#80CEDF"/>
		<path id="svg_5" d="m63.96666,70.33334l-6.49999,-33.7l-2.60001,0l-6.5,33.7l2.60001,0l1.8,-6.5l7.1,0l1.4,6.5l2.69999,0zm-4.59999,-9.2l-6.1,0c1.2,-6.6 2.5,-13.1 3,-19.8c0.1,2.7 0.5,5.3 0.9,7.9l2.2,11.9z" fill="#80CEDF"/>
		<path id="svg_6" d="m93.76666,36.63333l0,33.7l2.60001,0l-0.10001,-15.7l1.3,0c6,0 7.89999,-1.7 7.89999,-9c0,-6.4 -1,-9.1 -7.79999,-9.1l-3.90001,0l0,0.1zm2.5,15.2l0,-11.8l1.60001,0c4,0 5.09999,2.2 5.09999,5.8c0,3.2 -0.5,6.1 -4.5,6.1l-2.09999,0l0,-0.1l-0.10001,0z" fill="#80CEDF"/>
		<path id="svg_7" d="m74.26666,36.63333l0,33.7l2.60001,0l-0.10001,-15.7l1.3,0c6,0 7.89999,-1.7 7.89999,-9c0,-6.4 -1,-9.1 -7.79999,-9.1l-3.90001,0l0,0.1zm2.5,15.2l0,-11.8l1.60001,0c4,0 5.09999,2.2 5.09999,5.8c0,3.2 -0.5,6.1 -4.5,6.1l-2.09999,0l0,-0.1l-0.10001,0z" fill="#80CEDF"/>
		<path id="svg_8" d="m128.56668,37.03333l-3.40004,0l-2.89999,9.7c-0.89999,3.2 -1.3,4.8 -1.39999,6.2c-0.5,-2.3 -1.20001,-5.1 -1.60001,-6.2l-3.10001,-9.6l-3.39999,0l6.89999,18.9l0,14.3l2.60001,0l0,-14.2l6.30003,-19.1z" fill="#80CEDF"/>
		<path id="svg_9" d="m39.26667,100.13334c0,-5.60001 -0.4,-16.7 -7.8,-16.7c-7.20001,-0.1 -7.80001,11.3 -7.80001,16.8s0.4,16.9 7.80001,16.9c7.7,-0.10001 7.8,-11.5 7.8,-17zm-2.6,-1.2c0,0.5 1,15.3 -5.2,15.2c-4.90001,0 -5.20001,-10.5 -5.20001,-13.9c0,-3.5 0.3,-13.9 5.20001,-13.9c4.8,0 5.2,9.2 5.2,12.6z" fill="#80CEDF"/>
		<path id="svg_10" d="m56.16667,85.93333l0,-2.6l-10.4,0l0,32.4l2.6,0l0,-15.5l7.8,0l0,-2.6l-7.8,0l0,-11.7l7.8,0z" fill="#80CEDF"/>
		<path id="svg_11" d="m72.96666,85.93333l0,-2.6l-10.29999,0l0,32.4l2.59998,0l0,-15.5l7.8,0l0,-2.6l-7.8,0l0,-11.7l7.7,0z" fill="#80CEDF"/>
		<path id="svg_12" d="m111.96666,112.63334c-1.2,0.8 -2.60001,1.39999 -4,1.39999c-1.60001,0 -2.90001,-0.8 -3.60001,-2.1c-1.8,-2.6 -2.59999,-8.7 -2.59999,-11.9c0,-4.2 0.59999,-13.89999 6.59999,-13.89999c1.40001,0 2.60001,0.6 3.8,1.39999l0,-3.39999c-1.2,-0.8 -2.60001,-1 -3.89999,-1c-8.3,0 -9.10001,11.7 -9.10001,17.8c0,4.2 0.3,9.3 2.89999,12.8c1.40001,1.8 3.5,3.2 5.8,3.2c1.60001,0 3,-0.5 4.3,-1.4l0,-3l-0.2,0l0,0.10001z" fill="#80CEDF"/>
		<path id="svg_13" d="m128.76669,115.83334l0,-2.6l-7.80003,0l0,-13l7.80003,0l0,-2.6l-7.80003,0l0,-11.7l7.80003,0l0,-2.6l-10.40002,0l0,32.4l10.40002,0l0,0.1z" fill="#80CEDF"/>
		<path id="svg_14" d="m85.56665,78.03333c3.39999,6.7 5.3,13.9 5.3,21.5s-1.90001,14.8 -5.3,21.5l2.3,1.2c3.79999,-6.6 5.7,-15 5.7,-22.7s-2.10001,-16.1 -5.7,-22.7l-2.3,1.2z" fill="#F0BF18"/>
		<path id="svg_15" d="m84.56665,88.53333c0,-1.3 -1,-2.2 -2.2,-2.2s-2.20001,1 -2.20001,2.2c0,1.2 1,2.2 2.20001,2.2c1.10001,0 2.2,-0.9 2.2,-2.2zm0,17.5l-3,-1.39999l-3.40001,10.2l2.10001,1l4.3,-9.8z" fill="#F0BF18"/>
	</g>
</svg>