<?xml version="1.0" encoding="utf-8"?>
<!-- Generator: Adobe Illustrator 18.1.0, SVG Export Plug-In . SVG Version: 6.00 Build 0)  -->
<svg version="1.1" id="Layer_1" xmlns="http://www.w3.org/2000/svg" xmlns:xlink="http://www.w3.org/1999/xlink" x="0px" y="0px"
	 viewBox="124.1 64.9 23 23.2" enable-background="new 124.1 64.9 23 23.2" xml:space="preserve">
<g>
	<g>
		<path fill-rule="evenodd" clip-rule="evenodd" fill="#BCBDBF" d="M143.7,68.4c-4.5-4.5-11.8-4.5-16.3,0c-4.5,4.5-4.5,11.8,0,16.3
			c4.5,4.5,11.8,4.5,16.3,0C148.2,80.2,148.2,72.9,143.7,68.4z M143,84c-4.1,4.1-10.8,4.1-14.9,0c-4.1-4.1-4.1-10.8,0-14.9
			c4.1-4.1,10.8-4.1,14.9,0C147.1,73.2,147.1,79.8,143,84z M141,71.5l-0.8-0.5l-4.7,4.9l-4.7-4.8l-0.8,0.5l4.8,4.9l-4.8,4.9l0.8,0.5
			l4.7-4.8l4.8,4.8l0.8-0.5l-4.9-4.9L141,71.5z"/>
	</g>
</g>
</svg>
