<?xml version="1.0" encoding="utf-8"?>
<!-- Generator: Adobe Illustrator 18.1.0, SVG Export Plug-In . SVG Version: 6.00 Build 0)  -->
<svg version="1.1" id="Layer_1" xmlns="http://www.w3.org/2000/svg" xmlns:xlink="http://www.w3.org/1999/xlink" x="0px" y="0px"
	 viewBox="124.1 64.9 23 23.2" enable-background="new 124.1 64.9 23 23.2" xml:space="preserve">
<g>
	<g>
		<path fill="#BCBDBF" d="M135.6,65.1c-6.3,0-11.5,5.2-11.5,11.5c0,6.3,5.2,11.5,11.5,11.5s11.5-5.2,11.5-11.5
			C147.1,70.3,141.9,65.1,135.6,65.1z M135.6,87.2c-5.8,0-10.5-4.7-10.5-10.5c0-5.8,4.7-10.5,10.5-10.5c5.8,0,10.5,4.7,10.5,10.5
			C146.1,82.4,141.4,87.2,135.6,87.2z M143.9,76.4c0-0.1-0.1-0.1-0.1-0.2l-2.8-2.8c-0.2-0.2-0.5-0.2-0.7,0c-0.2,0.2-0.2,0.5,0,0.7
			l2,2h-6.1V70l1.9,1.9c0.1,0.1,0.2,0.1,0.3,0.1c0.1,0,0.2,0,0.3-0.1c0.2-0.2,0.2-0.5,0-0.7l-2.8-2.8c-0.2-0.2-0.5-0.2-0.7,0
			l-2.8,2.8c-0.2,0.2-0.2,0.5,0,0.7s0.5,0.2,0.7,0l2-2v6.3h-6.3l2-2c0.2-0.2,0.2-0.5,0-0.7c-0.2-0.2-0.5-0.2-0.7,0l-2.8,2.8
			c-0.1,0.1-0.1,0.2-0.1,0.3c0,0.1,0.1,0.3,0.1,0.3l2.8,2.8c0.1,0.1,0.2,0.1,0.3,0.1c0.1,0,0.2,0,0.3-0.1c0.2-0.2,0.2-0.5,0-0.7
			l-2-2h6.3v6.3l-2-2c-0.2-0.2-0.5-0.2-0.7,0c-0.2,0.2-0.2,0.5,0,0.7l2.8,2.8c0.1,0.1,0.2,0.1,0.3,0.1c0.1,0,0.3-0.1,0.3-0.1
			l2.8-2.8c0.2-0.2,0.2-0.5,0-0.7c-0.2-0.2-0.5-0.2-0.7,0l-1.9,1.9v-6.1h6.1l-2,2c-0.2,0.2-0.2,0.5,0,0.7c0.1,0.1,0.2,0.1,0.3,0.1
			c0.1,0,0.2,0,0.3-0.1l2.8-2.8c0,0,0.1-0.1,0.1-0.2c0-0.1,0-0.1,0-0.2C143.9,76.6,143.9,76.5,143.9,76.4z"/>
	</g>
</g>
</svg>
