<svg version="1.1" id="Layer_1" xmlns="http://www.w3.org/2000/svg" xmlns:xlink="http://www.w3.org/1999/xlink" x="0px" y="0px"
	 viewBox="124.1 64.9 20.1 23.2" enable-background="new 124.1 64.9 20.1 23.2" xml:space="preserve">
<g>
	<g>
		<path fill="#FFFFFF" d="M140.1,68.5c-3.2-2.4-7.5-2.6-10.9-0.8l0.6-2.2c0.1-0.3-0.1-0.5-0.4-0.6c-0.3-0.1-0.5,0.1-0.6,0.3l-1,3.5
			c0,0,0,0,0,0c0,0,0,0.1,0,0.1c0,0,0,0.1,0,0.1c0,0,0,0.1,0,0.1c0,0,0,0,0,0.1c0,0,0,0,0,0c0,0,0,0,0,0c0,0,0.1,0.1,0.1,0.1
			c0,0,0.1,0.1,0.2,0.1l3.4,0.9c0.3,0.1,0.5-0.1,0.6-0.3c0.1-0.3-0.1-0.5-0.4-0.6l-2.3-0.6c3.1-1.8,7-1.6,10,0.6
			c3.2,2.4,4.5,6.7,3.1,10.4c-0.1,0.3,0,0.5,0.3,0.6c0.3,0.1,0.5,0,0.6-0.3C145.1,75.9,143.7,71.2,140.1,68.5z M140.3,83.9
			C140.3,83.9,140.3,83.9,140.3,83.9c-0.1-0.1-0.1-0.1-0.1-0.1c0,0,0,0,0,0c0,0-0.1-0.1-0.1-0.1c0,0,0,0-0.1,0c0,0,0,0-0.1,0
			l-3.4-0.9c-0.3-0.1-0.5,0.1-0.6,0.3c-0.1,0.3,0.1,0.5,0.4,0.6l2.3,0.6c-3.1,1.8-7,1.6-10-0.6c-3.2-2.4-4.5-6.7-3.1-10.4
			c0.1-0.3,0-0.5-0.3-0.6c-0.3-0.1-0.5,0-0.6,0.3c-1.5,4.1-0.1,8.9,3.4,11.5c3.2,2.4,7.5,2.6,10.9,0.8l-0.6,2.2
			c-0.1,0.2,0,0.4,0.2,0.5c0,0,0.1,0.1,0.2,0.1c0.3,0.1,0.5-0.1,0.6-0.3l1-3.5c0,0,0,0,0,0c0,0,0-0.1,0-0.1
			C140.4,84.1,140.4,84.1,140.3,83.9C140.3,84,140.3,84,140.3,83.9z"/>
	</g>
</g>
</svg>
