<svg xmlns="http://www.w3.org/2000/svg" viewBox="0 0 30 30"><path fill-rule="evenodd" clip-rule="evenodd" fill="#A7A5AA" d="M15,0C6.7,0,0,6.7,0,15c0,6.2,3.8,11.5,9.2,13.8c0,0-0.1,0-0.1,0
			S8.8,27,9.9,23.2c1.1-3.7,1.5-6.1,1.5-6.1s-1-2.1-0.3-4c0.6-1.9,2-2.5,3.1-2.2c1.1,0.3,2,1,1.3,4c-0.6,3-1.9,4.5-0.2,5.9
			c1.7,1.3,4.2-0.4,4.9-1.7c0.6-1.3,2.1-4,1.1-7.5c-1-3.6-5-4.1-6.3-4c-1.2,0-4.8,0.6-6.4,4.1c-1.6,3.6-0.1,6,0.4,6.4
			c0,0-0.2,2-0.5,2.1c-0.4,0.1-4.7-1.2-3.4-7.7c0.6-3,3-5.4,5.7-6.6c2-0.9,4.3-0.9,5.9-0.8c3.8,0.4,9,3.3,8.3,10.1
			c-0.7,6.8-5.8,8.8-7.3,8.7c-1.2-0.1-2.9,0.1-4.3-1.8c-0.2-0.3-0.8,3-0.8,3s-1.4,4-1.9,4.2c0,0-0.1,0-0.1,0
			c1.3,0.4,2.8,0.6,4.2,0.6c8.3,0,15-6.7,15-15C30,6.7,23.3,0,15,0z"/>
</svg>
